# xmcd
#
# Track frame offsets:
#	150
#	16669
#	34036
#	52012
#	64344
#	76035
#	90035
#	105297
#
# Disc length: 1695 seconds
#
# Revision: 0
# Processed by: cddbd v1.5.2PL0 Copyright (c) Steve Scherf et al.
# Submitted via: audiograbber 1.83.01
#
DISCID=4a069d08
DTITLE=Ali Penney and The Moneymakers - temptation
DYEAR=2009
DGENRE=Blues
TTITLE0=Tempation
TTITLE1=I Declare
TTITLE2=Spooky
TTITLE3=I Love Bein' Here With You
TTITLE4=Stop This World 
TTITLE5=Crazy 'Bout You
TTITLE6=Aerial Pump
TTITLE7=Steppin' In
EXTD=
EXTT0=
EXTT1=
EXTT2=
EXTT3=
EXTT4=
EXTT5=
EXTT6=
EXTT7=
PLAYORDER=
